<svg xmlns="http://www.w3.org/2000/svg" width="706" height="695" viewBox="0 0 706 695" version="1.1"><path d="M 311.500 119.212 C 302.970 120.322, 282.973 125.012, 281.250 126.306 C 279.305 127.767, 279.769 129.574, 282.397 130.771 C 283.716 131.372, 290.353 132.345, 297.147 132.933 C 318.935 134.820, 341.500 138.181, 345.115 140.078 C 347.586 141.375, 364.872 145.775, 370.500 146.539 C 379.135 147.711, 410.931 158.819, 424.737 165.486 C 436.718 171.272, 445.633 176.700, 444.696 177.638 C 444.137 178.196, 432.565 173.304, 422.568 168.283 C 406.031 159.977, 384.272 152.184, 365.500 147.843 C 335.731 140.958, 328.272 140.045, 300.977 139.946 C 248.120 139.755, 236.847 142.523, 209.136 162.500 C 204.559 165.800, 198.872 169.864, 196.500 171.531 C 186.425 178.609, 176.916 187.281, 170.675 195.081 C 167.004 199.670, 164 204.174, 164 205.090 C 164 206.006, 164.969 207.399, 166.153 208.185 C 168.235 209.568, 167.848 210.029, 154.234 222.358 C 129.727 244.554, 124.661 253.615, 123.404 277.500 L 122.720 290.500 118.835 294.754 C 113.151 300.980, 107.187 310.632, 105.486 316.357 C 102.715 325.691, 104.180 334.695, 110.013 344.176 C 111.683 346.890, 112.809 349.499, 112.516 349.974 C 111.827 351.089, 107.333 366.591, 105.913 372.752 C 100.448 396.457, 101.792 406.883, 112.092 420.679 L 115.958 425.858 114.829 442.402 C 113.172 466.668, 114.922 472.407, 128.343 486.734 C 131.830 490.455, 136.570 496.756, 138.877 500.737 C 145.138 511.536, 154.084 522.946, 164.867 533.883 C 175.118 544.282, 196.295 560.741, 209.500 568.572 C 219.439 574.467, 239.989 584.271, 249.413 587.615 C 277.206 597.477, 287.166 600.076, 312.500 604.080 C 331.970 607.156, 369.922 607.983, 380.365 605.558 C 384.289 604.646, 389.525 603.505, 392 603.021 C 394.475 602.536, 400.550 601.148, 405.500 599.935 C 410.450 598.723, 416.075 597.646, 418 597.542 C 419.925 597.438, 424.425 596.078, 428 594.520 C 431.575 592.962, 436.620 591.577, 439.212 591.442 C 447.075 591.034, 469.941 578.395, 494.632 560.809 C 500.754 556.449, 506.695 551.889, 507.834 550.677 L 509.904 548.473 502.232 543.986 C 486.957 535.054, 463.433 515.622, 454.948 504.929 L 452.115 501.357 461.807 502.630 C 473.471 504.161, 494.774 506.011, 501 506.032 C 505.193 506.047, 506.347 506.728, 517.929 516.024 C 524.765 521.511, 530.840 525.988, 531.429 525.974 C 533.117 525.934, 548 511.347, 548 509.733 C 548 508.935, 545.493 506.619, 542.429 504.584 C 529.627 496.084, 494.578 458.475, 479.811 437.393 C 463.137 413.589, 454.437 390.754, 452.394 365.436 C 451.168 350.235, 455.867 335.450, 465.476 324.278 C 469.578 319.510, 480.016 313.941, 489.500 311.462 C 497.976 309.246, 527.080 308.372, 540.727 309.924 C 558.279 311.920, 566.398 313.151, 568.150 314.084 C 570.576 315.376, 573.062 323.438, 573.702 332.086 C 574.286 339.983, 573.560 343.728, 569.806 352.175 C 567.665 356.992, 567.875 360, 570.351 360 C 571.975 360, 591.087 339.843, 595.343 333.642 C 600.056 326.776, 606.763 312.702, 608.479 306.081 C 609.366 302.656, 610.352 295.499, 610.669 290.177 C 611.391 278.062, 609.637 270.221, 603.247 257 C 599.507 249.261, 597.314 246.196, 591.417 240.463 C 579.440 228.820, 567.643 222.416, 540.559 212.853 C 536.817 211.532, 536.534 211.131, 534.965 204.915 C 531.090 189.557, 522.054 178.940, 500.874 164.859 C 482.161 152.418, 471.133 146.539, 450 137.738 C 428.383 128.736, 403.254 121.928, 382.500 119.450 C 369.037 117.843, 323.203 117.689, 311.500 119.212 M 360 124.564 C 360.825 124.747, 369.600 126.296, 379.500 128.007 C 407.494 132.844, 420.223 136.229, 440.500 144.225 C 463.310 153.221, 494.155 170.493, 503.115 179.287 C 510.803 186.831, 516.681 195.531, 519.854 204.060 C 520.681 206.285, 521.278 206.566, 524.395 206.202 C 527.702 205.816, 527.934 205.576, 527.353 203.142 C 526.418 199.220, 525.255 197.207, 519.473 189.500 C 513.311 181.287, 512.213 180.270, 500.967 172.353 C 482.833 159.585, 463.724 149.560, 442.500 141.678 C 419.444 133.116, 401.704 128.607, 379.040 125.547 C 369.367 124.241, 355.253 123.513, 360 124.564 M 312.500 126.393 L 309.500 127.697 314 128.409 C 316.475 128.800, 325.025 130.195, 333 131.509 C 346.062 133.661, 369.534 136.024, 377.450 135.985 C 384.922 135.947, 370.451 131.162, 351.610 127.439 C 337.672 124.686, 317.663 124.151, 312.500 126.393 M 409.083 141.347 C 409.313 141.538, 416.458 144.558, 424.963 148.058 C 433.467 151.559, 446.742 157.975, 454.463 162.318 C 473.557 173.058, 493.040 183, 494.992 183 C 495.876 183, 497.045 183.338, 497.590 183.750 C 498.134 184.162, 497.212 183.221, 495.540 181.657 C 485.769 172.519, 461.590 158.890, 440.500 150.633 C 427.235 145.439, 406.714 139.374, 409.083 141.347 M 384 143.909 C 384.825 144.376, 388.635 145.533, 392.467 146.480 C 400.383 148.437, 417.838 155.058, 429.089 160.373 C 438.473 164.805, 449.648 172.046, 460.634 180.813 C 468.807 187.334, 480.923 194.440, 481.975 193.329 C 482.936 192.314, 465.617 176.932, 457.500 171.592 C 444.793 163.233, 438.952 160.299, 416.500 151 C 407.120 147.116, 390.661 142.959, 384.940 143.030 C 383.085 143.054, 382.860 143.264, 384 143.909 M 265.500 147.029 C 261.100 147.424, 255.188 148.233, 252.363 148.826 C 243.962 150.591, 228.757 156.879, 225 160.142 C 222.867 161.995, 222.281 162.894, 223.500 162.446 C 229.693 160.167, 248.739 155.851, 256.500 154.969 C 261.450 154.406, 268.546 153.508, 272.269 152.973 C 289.285 150.527, 327.489 152.887, 348 157.649 C 373.668 163.609, 401.171 174.947, 426.724 190.102 C 446.896 202.066, 471.249 210, 487.803 210 L 496.310 210 494.405 207.870 C 489.675 202.583, 483.656 200.245, 469 198.004 C 457.674 196.272, 452.372 194.272, 442.500 188.011 C 433.723 182.444, 426.659 178.376, 416.500 173.038 C 411.960 170.652, 392.666 162.638, 384 159.538 C 369.574 154.378, 339.471 147.997, 324.500 146.927 C 311.839 146.022, 276.018 146.083, 265.500 147.029 M 276 158.671 C 250.995 160.458, 221.466 167.841, 202.153 177.134 C 195.033 180.560, 192.259 182.715, 183.286 191.786 C 177.500 197.636, 173.193 202.564, 173.716 202.739 C 174.238 202.913, 177.329 201.446, 180.583 199.479 C 197.921 189.001, 230.589 176.370, 252 171.864 C 274.190 167.195, 279.569 166.626, 302 166.571 C 322.657 166.520, 325.770 166.751, 340 169.390 C 356.237 172.401, 374.571 178.121, 389.699 184.897 C 397.705 188.483, 401.816 189.447, 407.500 189.070 C 410.924 188.843, 401.321 183.455, 381.759 174.626 C 372.068 170.253, 352.733 164.410, 343 162.914 C 317.031 158.921, 293.419 157.426, 276 158.671 M 282 173.147 C 254.653 175.984, 225.567 184.315, 200.500 196.491 C 187.584 202.765, 176 209.720, 176 211.201 C 176 211.627, 178.588 210.822, 181.750 209.413 C 191.584 205.032, 199.300 201.814, 204.500 199.925 C 207.250 198.926, 211.364 197.428, 213.643 196.596 C 224.638 192.582, 241.591 188.714, 258.828 186.288 C 273.851 184.174, 315.264 183.914, 339.500 185.781 C 347.750 186.417, 359.225 187.179, 365 187.475 C 374.492 187.961, 375.313 187.868, 373.556 186.504 C 370.180 183.884, 355.895 178.867, 345 176.473 C 338.716 175.093, 327.622 173.731, 317.372 173.083 C 298.238 171.873, 294.214 171.880, 282 173.147 M 491.432 191.804 C 493.381 194.387, 497.060 199.537, 499.608 203.250 C 503.995 209.644, 504.446 210, 508.151 210 C 512.749 210, 513.665 208.544, 512.082 203.748 C 510.618 199.314, 498.248 190.079, 490.979 187.994 L 487.888 187.107 491.432 191.804 M 275.500 190.585 C 262.575 191.855, 245.371 194.418, 238 196.171 C 227.425 198.686, 210.332 203.630, 207 205.137 C 205.625 205.759, 203.600 206.608, 202.500 207.024 C 173.600 217.949, 142.526 239.903, 135.300 254.500 C 131.460 262.256, 128.873 272.311, 129.194 278.234 L 129.500 283.899 138.500 275.803 C 150.240 265.243, 163.873 254.472, 172 249.336 C 200.557 231.291, 218.786 222.979, 253.543 212.152 C 280.064 203.890, 288.716 202.531, 314.500 202.575 C 333.909 202.608, 337.496 202.873, 344.959 204.824 C 355.062 207.466, 367.611 213.678, 374.500 219.449 C 380.025 224.077, 387.151 228.941, 391 230.711 C 394.617 232.374, 401.067 234.266, 401.533 233.800 C 401.753 233.581, 399.265 231.398, 396.004 228.951 C 386.210 221.597, 380.515 212.090, 378.519 199.762 C 378.152 197.497, 377.132 195.606, 375.930 194.962 C 372.440 193.095, 287.597 189.397, 275.500 190.585 M 385.360 199.750 C 385.707 202.363, 387.539 207.655, 389.432 211.510 C 392.289 217.332, 393.943 219.305, 399.186 223.144 C 409.346 230.585, 419.284 233.121, 430.180 231.054 C 438.400 229.494, 443.493 225.952, 448.750 218.136 C 451.087 214.662, 453 211.482, 453 211.070 C 453 210.658, 451.937 209.837, 450.637 209.244 C 448.502 208.272, 448.074 208.521, 446.205 211.834 C 439.657 223.439, 426.633 228.480, 414.738 224.012 C 403.985 219.973, 395.981 209.185, 395.995 198.750 L 396 195 390.364 195 L 384.728 195 385.360 199.750 M 402.528 200.250 C 404.236 210.562, 412.612 219, 421.140 219 L 424.360 219 420.146 215.393 C 415.682 211.572, 413.031 207.206, 410.953 200.250 C 409.739 196.186, 409.511 196, 405.754 196 L 401.824 196 402.528 200.250 M 418.025 197.959 C 414.279 200.340, 426.732 215, 432.500 215 C 435.017 215, 442.376 207.418, 441.397 205.833 C 440.442 204.287, 429.633 199.299, 425.679 198.579 C 423.577 198.196, 421.327 197.689, 420.679 197.452 C 420.031 197.215, 418.836 197.443, 418.025 197.959 M 301.436 208.168 C 282.409 209.432, 265.078 215.032, 239 228.342 C 219.535 238.276, 197.672 258.034, 188.476 274 C 188.001 274.825, 189.637 273.854, 192.111 271.843 C 199.339 265.967, 222.427 252.215, 236.500 245.402 C 249.154 239.276, 261.010 234.906, 274.085 231.549 C 277.613 230.643, 281.850 229.508, 283.500 229.027 C 289.521 227.272, 297.815 226.067, 312.163 224.864 C 324.751 223.808, 328.856 223.862, 341.163 225.245 C 349.659 226.199, 358.718 227.892, 363.398 229.399 C 373.410 232.624, 387.728 240.704, 395.577 247.558 L 401.653 252.865 415.577 250.045 C 436.019 245.905, 437.286 245.521, 454.500 238.262 C 461.656 235.244, 489.941 220.288, 491.815 218.531 C 492.866 217.546, 491.157 217.180, 483.315 216.714 C 477.917 216.392, 470.257 215.285, 466.293 214.253 L 459.087 212.376 457.927 215.175 C 455.347 221.405, 450.762 227.179, 445.068 231.371 C 438.676 236.077, 432.522 238.375, 422 239.988 C 402.027 243.050, 390.514 239.701, 371.881 225.407 C 363.207 218.753, 351.297 212.907, 341.518 210.505 C 332.760 208.354, 314.591 207.295, 301.436 208.168 M 485.669 229.533 C 465.641 240.336, 445.026 249.646, 434 252.866 C 432.075 253.429, 425.550 254.866, 419.500 256.060 C 413.450 257.254, 408.189 258.516, 407.809 258.865 C 407.429 259.214, 409.080 261.573, 411.478 264.106 C 415.157 267.993, 416.906 268.984, 422.669 270.452 L 429.500 272.191 442 268.024 C 448.956 265.705, 459.543 261.135, 465.870 257.721 C 475.682 252.425, 478.932 249.959, 489.588 239.719 C 500.646 229.094, 509.871 218.494, 508.870 217.562 C 508.666 217.373, 498.226 222.760, 485.669 229.533 M 515.497 221.006 C 514.504 223.209, 513.086 225.514, 512.346 226.128 C 509.688 228.334, 511.136 228.741, 519.869 228.243 C 525.318 227.933, 530.813 228.224, 534.119 229 C 544.106 231.342, 544.398 233.334, 535.516 238.528 C 530.683 241.355, 527.591 244.201, 523.375 249.706 C 515.837 259.547, 515.277 259.406, 510.556 246.465 C 505.765 233.332, 506.682 233.369, 493.164 245.754 C 483.268 254.820, 479.338 257.638, 468.017 263.781 C 460.638 267.786, 453.565 271.322, 452.300 271.640 C 451.035 271.957, 450 272.578, 450 273.021 C 450 273.943, 452.695 274.416, 470 276.528 C 492.050 279.220, 501.446 280.740, 526.250 285.625 C 536.392 287.622, 552.213 292.903, 558.806 296.491 C 564.365 299.516, 573.339 307.811, 575.399 311.827 C 578.327 317.534, 580.322 324.806, 580.898 331.872 L 581.500 339.243 585.882 333.372 C 591.917 325.285, 598.582 311.153, 601.114 301.078 C 603.039 293.416, 603.134 291.652, 602.173 281.546 C 600.993 269.142, 599.539 264.985, 592.664 254.359 C 584.798 242.201, 573.533 233.264, 557.184 226.210 C 548.158 222.315, 528.182 217, 522.572 217 C 517.392 217, 517.274 217.067, 515.497 221.006 M 207.431 236.935 C 176.256 252.455, 158.241 265.516, 129.916 293.131 C 112.018 310.580, 107.391 322.925, 113.753 336.255 C 116.255 341.497, 128.711 358.817, 130.072 358.946 C 130.386 358.976, 131.648 356.637, 132.876 353.750 C 142.860 330.266, 154.265 311.862, 170.304 293.352 C 175.025 287.904, 178.466 282.592, 181.543 276.003 C 183.982 270.779, 188.022 263.721, 190.520 260.319 C 195.891 253.004, 211.242 238.601, 217.653 234.861 C 220.141 233.410, 222.677 231.723, 223.289 231.111 C 225.992 228.408, 220.527 230.415, 207.431 236.935 M 303.736 231.537 C 286.819 233.843, 270.325 238.454, 247.500 247.259 C 231.622 253.383, 213.620 263.763, 198.479 275.522 C 186.017 285.200, 183.473 288.467, 182.052 296.613 C 180.093 307.840, 179.703 312.605, 180.427 316.461 L 181.110 320.106 193.305 307.743 C 210.201 290.615, 221.714 281.838, 244.505 268.708 C 279.954 248.288, 316.993 240.562, 355.542 245.546 C 366.079 246.909, 371.734 248.069, 387.382 252.075 C 389.517 252.622, 391.397 252.936, 391.560 252.773 C 392.175 252.158, 380.238 243.895, 374 240.618 C 357.241 231.813, 328.736 228.129, 303.736 231.537 M 516.250 233.706 C 513.571 234.222, 513.608 233.842, 515.581 240.632 L 517.163 246.072 523.405 240.286 C 527.222 236.748, 529.230 234.215, 528.573 233.765 C 527.450 232.997, 520.115 232.961, 516.250 233.706 M 316.500 251.048 C 297.120 253.822, 286.204 256.682, 269 263.492 C 253.698 269.550, 235.181 279.998, 222.554 289.700 C 215.179 295.366, 200.381 309.289, 190.585 319.778 C 181.001 330.041, 181.322 328.977, 184.168 341 C 187.700 355.923, 197.783 381.658, 208.264 402.500 C 211.606 409.146, 212.420 410.161, 213.073 408.500 C 213.506 407.400, 213.891 405.096, 213.930 403.381 C 214.151 393.579, 218.794 373.343, 224.227 358.500 C 235.007 329.051, 249.935 308.788, 273.657 291.403 C 303.885 269.251, 332.350 259.452, 368 258.926 C 372.675 258.857, 377.625 258.478, 379 258.083 C 381.418 257.390, 381.378 257.325, 377.791 256.119 C 368.065 252.849, 352.205 250.664, 337 250.500 C 328.475 250.408, 319.250 250.654, 316.500 251.048 M 391 261.727 C 380.718 263.707, 379.826 264.163, 384.500 265.046 C 396.505 267.313, 402.748 268.195, 404.459 267.866 C 406.178 267.535, 406.037 267.111, 403.084 263.748 C 401.274 261.687, 399.502 260.064, 399.146 260.141 C 398.791 260.219, 395.125 260.933, 391 261.727 M 327.500 271.025 C 314.326 274.816, 287.911 288.032, 276.910 296.338 C 256.756 311.553, 239.175 335.381, 230.306 359.500 C 227.504 367.121, 223.148 383.550, 221.079 394.301 C 219.489 402.559, 219 409.021, 219 421.751 C 219 430.908, 219.368 437.972, 219.817 437.450 C 220.267 436.927, 221.212 434.025, 221.918 431 C 226.108 413.041, 237.862 387.219, 251.961 365 C 255.062 360.113, 257.159 355.410, 257.982 351.500 C 263.381 325.828, 293.141 295.450, 333.500 274.417 C 339.550 271.264, 344.688 268.530, 344.917 268.342 C 346.565 266.989, 335.720 268.660, 327.500 271.025 M 362.500 270.618 C 349.012 274.098, 336.120 279.699, 323.405 287.603 C 315.916 292.259, 312.611 296.755, 310.249 305.500 C 307.532 315.562, 307.079 317.412, 307.282 317.613 C 307.402 317.732, 312.675 314.280, 319 309.944 C 347.471 290.423, 365.277 280.858, 382.844 275.650 C 390.962 273.243, 393.663 272.073, 392.344 271.538 C 390.141 270.644, 365.359 269.880, 362.500 270.618 M 401.500 275.031 C 396.982 275.949, 380.029 281.803, 378.500 282.974 C 377.950 283.395, 375.700 284.309, 373.500 285.005 C 368.173 286.690, 361.671 290.004, 362.352 290.685 C 362.652 290.986, 364.383 290.684, 366.199 290.015 C 369.293 288.875, 371.249 288.299, 380 285.946 C 381.925 285.429, 386.875 284.308, 391 283.455 C 402.541 281.069, 417.487 275.923, 415.864 274.895 C 414.215 273.850, 406.980 273.919, 401.500 275.031 M 436.500 283.631 C 412.140 285.165, 404.949 286.857, 389.534 294.683 C 374.408 302.361, 359.607 315.112, 351.082 327.809 C 346.295 334.938, 339.634 348.421, 340.155 349.926 C 340.345 350.473, 342.525 349.658, 345 348.116 C 353.023 343.116, 366.279 336.421, 376 332.461 C 383.417 329.439, 386.925 327.291, 392 322.666 C 404.705 311.087, 411.928 306.475, 425.596 301.212 C 440.234 295.575, 446.662 294.522, 466 294.592 C 481.198 294.647, 485.933 295.088, 502 297.947 C 520.566 301.251, 526.118 301.990, 546.512 303.867 C 552.568 304.424, 558.418 305.169, 559.512 305.522 C 561.486 306.159, 561.486 306.151, 559.500 304.503 C 554.726 300.541, 538.452 294.559, 526 292.189 C 522.975 291.613, 517.125 290.471, 513 289.651 C 508.875 288.831, 501.900 287.639, 497.500 287.002 C 493.100 286.365, 487.250 285.377, 484.500 284.808 C 479.366 283.744, 447.218 282.956, 436.500 283.631 M 370.934 295.047 C 365.867 296.248, 346.090 303.996, 335.651 308.869 C 330.784 311.141, 326.628 313, 326.416 313 C 325.457 313, 315.075 319.679, 311.139 322.828 L 306.777 326.316 307.443 332.408 C 308.115 338.559, 309.378 344.234, 311.062 348.662 C 311.950 351, 312.164 350.862, 317.862 344.288 C 330.301 329.937, 344.539 317.218, 362.350 304.548 C 369.047 299.783, 376.248 293.992, 375.340 294.100 C 374.878 294.156, 372.895 294.582, 370.934 295.047 M 169.265 304.750 C 158.898 316.835, 144.284 341.662, 138.045 357.787 C 136.920 360.695, 136 363.669, 136 364.396 C 136 366.217, 143.976 375.133, 145.025 374.484 C 145.492 374.196, 146.503 372.732, 147.273 371.230 C 148.708 368.432, 151.235 363.937, 155.836 356 C 158.206 351.913, 167.007 338.967, 172.098 332.082 C 173.908 329.633, 174.150 327.674, 174.315 314.166 C 174.417 305.824, 174.432 298.999, 174.349 298.999 C 174.266 299, 171.978 301.587, 169.265 304.750 M 452 301.090 C 439.723 303, 434.018 304.559, 424.018 308.737 C 414.151 312.859, 406.253 317.586, 407.367 318.701 C 407.642 318.975, 409.452 318.676, 411.391 318.036 C 416.299 316.416, 436.708 312.179, 447.500 310.539 C 452.450 309.787, 459.200 308.699, 462.500 308.122 C 469.363 306.923, 471.931 306.551, 484.769 304.898 C 489.867 304.242, 493.803 303.470, 493.516 303.182 C 492.606 302.273, 471.790 300.116, 464.500 300.176 C 460.650 300.208, 455.025 300.619, 452 301.090 M 298.393 305.317 C 292.170 309.927, 280.784 322.064, 274.687 330.585 C 270.436 336.528, 264.652 348.457, 265.211 350.132 C 265.423 350.770, 268.500 348.690, 272.049 345.510 C 275.597 342.330, 280.975 338.104, 284 336.117 C 287.025 334.131, 289.725 332.265, 290 331.970 C 290.275 331.675, 292.810 329.762, 295.633 327.717 C 300.680 324.064, 300.779 323.892, 301.453 317.595 C 301.830 314.071, 302.784 309.047, 303.571 306.429 C 304.359 303.812, 304.842 301.509, 304.644 301.311 C 304.447 301.114, 301.634 302.916, 298.393 305.317 M 450.500 317.857 C 439.530 321.622, 424.433 330.851, 412 341.393 C 404.617 347.652, 382.806 370.668, 381.001 374.104 C 378.840 378.219, 379.165 379.894, 384.962 394.500 C 389.168 405.098, 393.408 412.727, 400.960 423.284 C 407.991 433.114, 409.426 434.486, 408.336 430.334 C 407.126 425.727, 407.533 398.003, 408.906 391.500 C 415.429 360.608, 433.959 330.941, 453.686 319.808 C 456.609 318.159, 459 316.627, 459 316.405 C 459 315.571, 455.337 316.196, 450.500 317.857 M 418 323.528 C 415.525 324.232, 410.974 325.486, 407.888 326.314 C 395.735 329.573, 388.456 335.099, 384.131 344.351 C 381.596 349.774, 378.290 362.623, 379.196 363.529 C 379.380 363.714, 385.613 357.932, 393.046 350.682 C 400.479 343.432, 410.935 334.173, 416.280 330.107 C 421.626 326.040, 426 322.553, 426 322.357 C 426 321.721, 422.605 322.218, 418 323.528 M 335.287 334.750 C 328.076 341.576, 316.213 356.305, 315.437 359.394 C 314.673 362.440, 316.649 367.333, 318.248 366.353 C 327.508 360.680, 330.459 357.799, 331.926 353 C 332.683 350.525, 335.476 344.113, 338.133 338.750 C 340.790 333.387, 342.603 329, 342.162 329 C 341.722 329, 338.627 331.587, 335.287 334.750 M 451.181 330.358 C 446.636 332.879, 436.417 343.973, 432.286 350.871 C 426.579 360.398, 424 368.675, 424 377.460 C 424 387.455, 427.524 403.095, 431.782 412 C 435.512 419.801, 441.859 431.133, 442.984 432 C 443.340 432.275, 445.031 434.525, 446.741 437 C 450.840 442.931, 470.770 463.564, 471.599 462.734 C 471.955 462.378, 470.421 460.014, 468.191 457.480 C 459.016 447.057, 445.828 425.056, 441.365 412.727 C 436.569 399.482, 434.199 381.210, 435.983 371.248 C 437.967 360.168, 443.779 346.125, 451.916 332.750 C 454.454 328.578, 454.445 328.547, 451.181 330.358 M 296.765 339.499 C 293.084 344.684, 287.452 354.263, 285.919 357.944 C 285.360 359.289, 283.606 363.341, 282.022 366.949 C 276.362 379.846, 273.354 394.865, 276.093 396.558 C 276.695 396.929, 279.057 395.458, 281.343 393.289 C 286.163 388.714, 295.951 381, 296.934 381 C 297.304 381, 298.639 377.738, 299.902 373.750 C 301.165 369.762, 303.270 364.635, 304.579 362.356 L 306.960 358.212 304.938 350.856 C 303.826 346.810, 302.649 341.802, 302.323 339.726 C 301.997 337.650, 301.347 335.715, 300.880 335.426 C 300.412 335.137, 298.560 336.970, 296.765 339.499 M 368 342.837 C 356.822 348.508, 351.808 351.284, 343.024 356.669 C 335.404 361.340, 334.693 362.984, 332.903 380.081 L 331.779 390.818 334.889 395.339 C 336.600 397.826, 338 400.136, 338 400.473 C 338 400.810, 339.856 403.598, 342.125 406.669 L 346.250 412.253 349.879 405.376 C 354.139 397.306, 362.647 384.819, 368.128 378.591 C 371.695 374.539, 372 373.726, 372 368.257 C 372 361.747, 374.666 350.174, 377.875 342.750 C 379.285 339.489, 379.548 338.003, 378.714 338.009 C 378.047 338.013, 373.225 340.186, 368 342.837 M 170.307 345.709 C 164.650 353.480, 161.173 359.023, 154.515 370.884 C 149.858 379.179, 149.828 379.291, 151.655 381.555 C 156.195 387.182, 168.243 401.110, 174.097 407.500 C 177.625 411.350, 187.537 422.600, 196.125 432.500 C 204.713 442.400, 212.621 451.288, 213.700 452.252 C 215.641 453.985, 215.647 453.936, 214.297 447.752 C 213.546 444.313, 212.652 437.037, 212.311 431.581 C 211.707 421.922, 211.558 421.438, 206.634 413.081 C 198.701 399.619, 189.148 377.244, 180.020 350.740 C 177.982 344.823, 176.075 339.742, 175.782 339.449 C 175.490 339.157, 173.026 341.973, 170.307 345.709 M 280.393 346.108 C 272.274 352.124, 268.541 355.494, 265.854 359.230 C 264.068 361.716, 263.995 362.523, 265.046 368.230 C 266.487 376.057, 269.073 383.350, 270.033 382.296 C 270.432 381.858, 271.297 379.700, 271.955 377.500 C 274.156 370.147, 279.358 357.647, 283.698 349.282 C 286.061 344.727, 287.835 341, 287.640 341 C 287.446 341, 284.184 343.298, 280.393 346.108 M 115.249 362.223 C 112.947 370.076, 112.748 371.108, 110.451 387.171 C 108.976 397.487, 108.995 398.048, 111.009 404.027 C 112.155 407.428, 113.822 411.324, 114.713 412.684 C 116.979 416.143, 117.725 414.385, 119.056 402.448 C 119.657 397.061, 121.711 387.445, 123.622 381.077 C 125.532 374.710, 127.324 368.600, 127.605 367.500 C 127.977 366.039, 126.669 364.079, 122.749 360.223 L 117.383 354.947 115.249 362.223 M 444.773 362.500 C 443.312 366.970, 441.763 384.632, 442.286 390.853 C 444.948 422.530, 478.657 469.628, 510 485.466 L 513.500 487.234 510 483.373 C 508.075 481.250, 503.575 476.351, 500 472.487 C 496.425 468.623, 492.600 464.340, 491.500 462.970 C 490.400 461.599, 486.521 456.883, 482.881 452.489 C 462.711 428.145, 449.761 400.312, 447.059 375.498 C 446.400 369.449, 445.763 363.600, 445.644 362.500 L 445.426 360.500 444.773 362.500 M 307.449 370.468 C 305.461 375.225, 305.580 375.436, 308.906 373.067 C 310.967 371.600, 311.660 370.416, 311.289 368.999 C 310.511 366.023, 309.077 366.571, 307.449 370.468 M 323.033 369.832 L 319.641 372.663 322.691 377.946 L 325.741 383.230 326.445 377.365 C 326.832 374.139, 327.389 370.488, 327.683 369.250 C 328.394 366.255, 327.127 366.414, 323.033 369.832 M 255.911 371.066 C 253.143 374.738, 243 391.366, 243 392.232 C 243 392.517, 240.607 397.869, 237.682 404.125 C 234.756 410.381, 231.835 417.300, 231.189 419.500 C 226.220 436.423, 224.617 443.691, 224.094 451.675 C 223.183 465.574, 223.773 466.413, 228.386 457.776 C 235.331 444.772, 253.573 420.334, 262.883 411.563 C 264.966 409.600, 266 407.674, 266 405.756 C 266 404.177, 266.474 400.999, 267.053 398.693 C 268.002 394.916, 267.802 393.829, 265.036 387.733 C 261.565 380.086, 259.304 373.654, 258.825 370.066 C 258.506 367.677, 258.452 367.696, 255.911 371.066 M 132.235 375.250 C 127.484 384.944, 122.220 422.739, 125.470 423.824 C 126.004 424.002, 128.076 419.277, 130.075 413.324 C 133.582 402.880, 139.010 389.163, 141.671 384.015 C 142.864 381.709, 142.655 381.224, 138.770 377.265 C 136.467 374.919, 134.303 373, 133.961 373 C 133.618 373, 132.842 374.012, 132.235 375.250 M 309.755 378.648 C 304.556 382.347, 302.212 389.101, 301.382 402.766 C 301.021 408.700, 301.047 417.592, 301.438 422.527 L 302.150 431.500 308.933 438 C 312.664 441.575, 320.555 447.823, 326.469 451.885 C 338.247 459.976, 337.924 460.103, 333.774 449 C 331.718 443.502, 330.958 440.205, 328.929 428 C 328.335 424.425, 327.437 419.025, 326.934 416 C 326.431 412.975, 325.732 406.900, 325.380 402.500 C 324.794 395.163, 324.293 393.733, 319.338 385.250 C 316.366 380.163, 313.831 376, 313.705 376 C 313.579 376, 311.802 377.192, 309.755 378.648 M 416.149 389.006 C 414.349 396.569, 413.607 417.028, 414.824 425.500 C 416.536 437.409, 419.280 445.862, 422.794 450.047 C 427.944 456.181, 443.033 467.261, 460.557 477.777 C 470.875 483.969, 494.963 496.371, 495.543 495.790 C 496.160 495.174, 474.551 473.457, 467.500 467.607 C 452.062 454.799, 434.198 432.349, 427.185 416.943 C 423.314 408.440, 420.034 398.147, 418.600 390.006 L 417.456 383.511 416.149 389.006 M 366.810 391.426 C 360.689 399.160, 351.757 415.334, 352.174 417.931 C 352.462 419.730, 378.906 447.427, 379.638 446.696 C 379.797 446.537, 379.245 444.178, 378.412 441.453 C 375.042 430.430, 372.849 415.670, 372.104 399 L 371.500 385.500 366.810 391.426 M 144.150 393.703 C 138.810 404.282, 133.010 422.451, 133.003 428.623 C 132.999 432.373, 136.582 435.881, 156.569 451.697 C 159.907 454.339, 167.161 460.100, 172.689 464.500 C 184.920 474.237, 195.504 481.909, 207.734 489.905 L 216.967 495.942 216.354 479.852 L 215.742 463.763 211.530 459.632 C 209.214 457.359, 205.123 452.800, 202.440 449.500 C 196.821 442.588, 192.777 438.064, 177.387 421.477 C 171.275 414.890, 164.007 406.800, 161.237 403.500 C 158.466 400.200, 154.190 395.255, 151.734 392.512 L 147.269 387.524 144.150 393.703 M 288.040 395.063 C 281.364 400.340, 280.200 402.818, 282.610 406.626 C 285.032 410.453, 293.078 420.003, 293.871 419.990 C 294.217 419.985, 294.601 413.460, 294.725 405.490 C 294.850 397.521, 294.552 391, 294.065 391 C 293.578 391, 290.867 392.828, 288.040 395.063 M 379.068 405.236 C 379.030 409.490, 379.427 414.890, 379.949 417.236 C 380.471 419.581, 381.893 426.225, 383.108 432 C 386.052 445.991, 388.700 453.996, 391.332 456.857 C 392.524 458.153, 397.550 462.025, 402.500 465.461 C 410.560 471.055, 413.583 472.983, 424.091 479.230 C 425.691 480.181, 427 480.761, 427 480.519 C 427 480.277, 424.577 475.437, 421.615 469.764 C 418.653 464.090, 415.450 456.669, 414.497 453.273 C 413.348 449.178, 411.667 445.985, 409.509 443.798 C 399.985 434.145, 388.086 417.545, 383.825 407.968 C 382.487 404.961, 380.885 401.375, 380.264 400 C 379.303 397.871, 379.125 398.648, 379.068 405.236 M 333.426 412 C 334.218 421.155, 336.901 434, 338.021 434 C 338.472 434, 339.136 432.538, 339.497 430.750 C 339.857 428.962, 340.824 425.668, 341.644 423.428 L 343.135 419.357 337.956 411.928 L 332.777 404.500 333.426 412 M 272.396 407.411 C 271.382 410.054, 272.691 451.582, 274.022 459 C 278.950 486.454, 291.334 520.002, 301.583 533.662 C 305.778 539.253, 316.934 546.569, 336.370 556.473 C 341.941 559.312, 349.425 563.269, 353 565.267 C 366.052 572.558, 388.018 580.202, 386.804 577.030 C 386.637 576.592, 383.462 573.753, 379.748 570.720 C 359.579 554.247, 350.745 544.655, 332.111 519 C 318.951 500.880, 300.886 459.386, 297.076 438.523 C 296.145 433.429, 295.269 431.805, 291.139 427.523 C 288.473 424.761, 283.682 419.125, 280.491 415 C 272.810 405.072, 273.166 405.405, 272.396 407.411 M 257.748 427.507 C 254.034 431.223, 247.467 439.492, 243.155 445.882 C 227.192 469.536, 227.157 469.715, 235.958 482.686 C 244.479 495.243, 257.880 508.173, 274.603 519.970 C 282.422 525.487, 289.116 530, 289.477 530 C 290.366 530, 289.273 526.526, 286.487 520.500 C 284.204 515.560, 283.054 512.540, 276.422 494.058 C 269.828 475.685, 266.341 457.331, 265.223 435.125 L 264.500 420.750 257.748 427.507 M 345.087 432.709 C 340.716 447.384, 343.247 462.636, 350.838 467.370 C 355.922 470.540, 369.656 476.209, 381.193 479.900 C 391.249 483.116, 394 483.599, 394 482.144 C 394 481.673, 391.298 475.943, 387.996 469.409 C 383.267 460.053, 380.984 456.686, 377.246 453.554 C 374.636 451.367, 369.125 446.373, 365 442.457 C 360.875 438.541, 355.167 433.202, 352.315 430.593 L 347.130 425.848 345.087 432.709 M 122.773 434 C 120.946 441.030, 120.405 454.757, 121.585 464.189 C 122.088 468.215, 127.460 478.951, 128.428 477.865 C 128.607 477.664, 127.867 473.450, 126.783 468.500 C 125.699 463.550, 124.500 453.200, 124.118 445.500 C 123.736 437.800, 123.131 432.625, 122.773 434 M 131.008 447.250 C 131.017 456.622, 132.383 464.842, 135.557 474.630 C 138.929 485.029, 141.798 489.165, 148.739 493.634 C 165.854 504.653, 223.469 533, 228.750 533 C 230.548 533, 230.310 531.551, 227.633 526.217 C 225.209 521.386, 221.684 511.658, 220.580 506.750 C 220.240 505.238, 219.494 504, 218.922 504 C 217.552 504, 195.407 489.769, 186.500 483.165 C 174.546 474.302, 156.201 459.929, 143.852 449.750 C 137.346 444.387, 131.793 440, 131.512 440 C 131.230 440, 131.003 443.262, 131.008 447.250 M 306 445.755 C 306 451.031, 316.310 478.056, 323.225 490.904 C 332.382 507.918, 338.025 516.490, 349.621 531 C 361.398 545.738, 375.197 559.102, 391.228 571.298 C 399.660 577.713, 402.052 578.666, 413 579.970 C 417.125 580.461, 421.288 581.167, 422.250 581.538 C 425.548 582.812, 423.885 580.498, 417.910 575.500 C 410.921 569.653, 387.655 546.358, 382.828 540.374 C 376.260 532.231, 366.826 519.391, 363.083 513.500 C 357.793 505.175, 347.984 486.126, 343.906 476.258 C 342.033 471.726, 340.158 468.013, 339.741 468.008 C 338.212 467.991, 321.329 456.642, 315.500 451.712 C 312.200 448.922, 308.712 445.975, 307.750 445.164 C 306.172 443.835, 306 443.893, 306 445.755 M 424 460.419 C 424 464.290, 438.250 486.341, 444.148 491.596 C 446.800 493.960, 454.371 495.449, 471.706 497.016 C 477.869 497.573, 483.719 498.276, 484.706 498.578 C 485.693 498.880, 480.650 496.143, 473.500 492.497 C 460.829 486.036, 436.786 470.538, 428.250 463.330 C 425.913 461.356, 424 460.046, 424 460.419 M 395 468.701 C 395 468.993, 397.129 472.974, 399.731 477.549 C 404.442 485.830, 404.487 485.873, 410.237 487.486 C 413.413 488.378, 418.372 489.532, 421.256 490.052 C 424.140 490.572, 427.804 491.288, 429.399 491.643 C 433.713 492.606, 431.965 490.815, 425.311 487.454 C 422.115 485.840, 413.988 480.842, 407.250 476.346 C 400.512 471.850, 395 468.410, 395 468.701 M 350.547 476.260 C 351.395 479.073, 361.027 497.024, 365.967 505 C 366.478 505.825, 368.693 509.459, 370.889 513.075 C 373.085 516.692, 378.147 523.892, 382.138 529.075 C 390.529 539.974, 416.054 565.846, 426.996 574.542 C 431.118 577.819, 435.366 581.288, 436.434 582.250 C 437.503 583.212, 439.152 584, 440.100 584 C 442.726 584, 466.557 573.365, 469.757 570.765 C 470.697 570.001, 468.690 567.953, 461.776 562.622 C 440.515 546.230, 428.544 533.349, 412.762 509.879 L 401.024 492.423 388.262 489.008 C 381.243 487.130, 373.475 484.730, 371 483.675 C 359.329 478.701, 355.288 476.900, 352.686 475.516 C 349.955 474.063, 349.891 474.086, 350.547 476.260 M 223.359 486 C 224.363 499.890, 224.659 500.731, 229.883 504.539 C 232.422 506.390, 235.620 508.489, 236.990 509.202 C 238.359 509.916, 242.402 512.188, 245.974 514.250 C 249.546 516.313, 252.834 518, 253.281 518 C 253.728 518, 252.800 516.313, 251.217 514.250 C 245.131 506.317, 234.162 491.238, 230.274 485.460 C 228.039 482.138, 225.414 478.763, 224.442 477.960 C 222.765 476.575, 222.709 476.990, 223.359 486 M 494.134 483.780 C 494.335 484.318, 497.299 487.888, 500.720 491.713 C 506.818 498.531, 507.079 498.694, 513.976 499.995 C 517.845 500.725, 521.256 501.077, 521.557 500.776 C 521.857 500.476, 519.043 498.540, 515.302 496.474 C 511.561 494.408, 506.475 491.311, 504 489.591 C 496.468 484.356, 493.750 482.755, 494.134 483.780 M 419 497.763 C 419 499.629, 443.530 522.462, 458.039 534.100 C 471.439 544.850, 488.899 557, 490.946 557 C 491.428 557, 493.018 555.579, 494.480 553.841 L 497.138 550.683 494.819 548.591 C 493.543 547.441, 490.864 545.375, 488.865 544 C 473.908 533.714, 463.650 524.736, 451.733 511.500 L 441.830 500.500 433.165 499.293 C 428.399 498.629, 423.262 497.789, 421.750 497.426 C 420.149 497.042, 419 497.183, 419 497.763 M 149 503.528 C 149 505.961, 165.695 525.650, 175.607 534.906 C 188.259 546.722, 211.702 562.861, 228.539 571.349 C 242.652 578.462, 270.104 589.477, 272.051 588.807 C 272.542 588.638, 269.451 584.900, 265.181 580.500 C 251.359 566.254, 241.696 554.190, 237.490 545.927 C 236.531 544.042, 235.649 542.384, 235.532 542.242 C 235.414 542.101, 230.409 540.146, 224.409 537.898 C 218.409 535.650, 200 527.156, 183.500 519.023 C 153.867 504.416, 149 502.231, 149 503.528 M 518 509.412 C 518 509.639, 520.967 511.942, 524.593 514.529 L 531.186 519.234 535.645 514.867 L 540.103 510.500 535.302 509.838 C 529.831 509.083, 518 508.792, 518 509.412 M 228 511.349 C 228 515.074, 237.016 534.939, 239.729 537.190 C 240.556 537.876, 242.868 539.059, 244.866 539.818 C 250.936 542.124, 282.320 552.666, 285.141 553.346 C 287.101 553.819, 284.519 550.806, 275.119 541.654 C 264.865 531.669, 260.938 528.554, 254.478 525.278 C 250.090 523.053, 243.575 519.386, 240 517.129 C 229.214 510.320, 228 509.735, 228 511.349 M 422.137 511.750 C 431.729 523.353, 437.413 529.526, 448.926 540.843 C 456.392 548.182, 464.075 555.371, 466 556.820 C 467.925 558.268, 471.246 560.907, 473.381 562.685 C 477.093 565.775, 477.387 565.851, 480.131 564.432 C 481.709 563.616, 483 562.603, 483 562.180 C 483 561.420, 476.795 556.551, 470 551.978 C 462.343 546.825, 440.975 528.584, 432.020 519.557 C 426.806 514.300, 422.123 510, 421.615 510 C 421.106 510, 421.341 510.788, 422.137 511.750 M 267.807 524.750 C 273.054 531.362, 298.390 555.549, 301.908 557.304 C 305.108 558.901, 309 559.572, 309 558.528 C 309 558.269, 306.180 553.926, 302.732 548.878 C 296.770 540.146, 296.027 539.458, 287.482 534.731 C 282.542 531.998, 275.666 527.791, 272.202 525.381 C 268.738 522.972, 265.663 521, 265.368 521 C 265.073 521, 266.171 522.688, 267.807 524.750 M 249.081 551.712 C 253.677 558.527, 263.058 569.070, 273.500 579.158 C 287.924 593.093, 288.384 593.374, 300.673 595.770 C 316.299 598.817, 324.171 600, 328.816 600 C 331.063 600, 335.103 600.472, 337.794 601.049 C 340.485 601.626, 345.701 601.964, 349.386 601.799 L 356.086 601.500 351.293 598.890 C 330.652 587.652, 329.148 586.708, 309.676 572.771 C 298.798 564.985, 295.463 563.097, 289 561.066 C 276.594 557.166, 260.757 551.887, 256.500 550.231 C 253.750 549.162, 250.229 547.980, 248.676 547.606 L 245.852 546.925 249.081 551.712 M 310.972 550.947 C 311.516 551.964, 314.207 555.253, 316.950 558.255 C 321.490 563.222, 322.505 563.823, 328.220 564.924 C 331.674 565.589, 336.425 566.616, 338.779 567.205 C 341.132 567.794, 343.251 568.082, 343.488 567.846 C 343.876 567.457, 330.766 560.030, 315.730 552.121 C 311.041 549.655, 310.164 549.438, 310.972 550.947 M 315 568.461 C 315 569.236, 319.322 573, 320.212 573 C 320.671 573, 320.309 571.875, 319.408 570.500 C 318.021 568.383, 315 566.986, 315 568.461 M 331 572.689 C 331 574.237, 344.334 586.603, 351 591.237 C 363.331 599.810, 364.900 600.311, 377.442 599.684 C 390.171 599.048, 401.607 597.539, 407.828 595.677 L 412.156 594.381 406.225 590.720 C 402.963 588.706, 399.722 586.370, 399.024 585.529 C 398.199 584.535, 396.029 584, 392.820 584 C 390.106 584, 385.999 583.581, 383.693 583.068 C 381.387 582.555, 376.575 581.601, 373 580.948 C 367.443 579.932, 358.453 577.860, 343 574.034 C 336.557 572.439, 331 571.816, 331 572.689 M 415.937 589.083 L 421.374 592.254 425.647 589.920 C 427.997 588.636, 429.825 587.511, 429.710 587.420 C 429.594 587.328, 425.225 586.951, 420 586.582 L 410.500 585.911 415.937 589.083" stroke="none" fill="#f5f5f5" fill-rule="evenodd"/></svg>